<?xml version="1.0" encoding="utf-8"?>
<!-- Generator: Adobe Illustrator 26.3.1, SVG Export Plug-In . SVG Version: 6.00 Build 0)  -->
<svg version="1.1" id="Layer_1" xmlns="http://www.w3.org/2000/svg" xmlns:xlink="http://www.w3.org/1999/xlink" x="0px" y="0px"
	 viewBox="0 0 2500 1300" style="enable-background:new 0 0 2500 1300;" xml:space="preserve">
<style type="text/css">
	.st0{fill:#ADE6FF;}
	.st1{fill:#C4ECFF;}
	.st2{fill:#D0EFFF;}
</style>
<g transform="matrix( 1, 0, 0, 1, 40,120) ">
	<g>
		<g id="Layer0_120_FILL">
			<path class="st0" d="M2460-214.4H-40v1481.8h2500V-214.4z"/>
		</g>
	</g>
</g>
<g transform="matrix( 1, 0, 0, 1, 40,120) ">
	<g>
		<g id="Layer0_121_FILL">
			<path class="st1" d="M2130.4,477c-15.5-8.6-34.3-12.9-56.4-12.9c-22.1,0-40.9,4.3-56.5,12.9c-2.3,1.3-4.4,2.7-6.5,4.1
				c-38.7-20-84.9-30-138.7-30c-10.9,0-21.5,0.4-31.9,1.3c-0.8-0.5-1.6-0.9-2.4-1.4c-15.5-8.6-34.3-13-56.4-13
				c-12.5,0-24.1,1.4-34.7,4.3h-0.1c0-0.2,0-0.5,0.1-0.7c0.2-1,0.2-2,0.2-3c0-0.4,0-0.8,0-1.1c0-0.5,0-1,0-1.5
				c-0.7-11.5-8.5-21.4-23.4-29.7c-15.5-8.6-34.3-12.9-56.4-12.9c-4.9,0-9.5,0.2-13.9,0.7c-3.7-6.8-10.4-13-20.3-18.4
				c-15.5-8.6-34.3-12.9-56.4-12.9c-22.1,0-40.9,4.3-56.4,12.9c-10.7,5.9-17.7,12.6-21.1,20.2c-34.5,3.9-65.3,12.6-92.4,26.2
				c-13.8-6-30-9-48.5-9c-22.1,0-40.9,4.3-56.5,12.9c-11.3,6.3-18.5,13.5-21.6,21.8c-13.8-1.6-28.1-2.4-43-2.4
				c-4.7,0-9.4,0.1-14.2,0.3c-3.4-7.4-10.4-14.1-20.9-19.9c-15.5-8.6-34.3-12.9-56.4-12.9c-22.1,0-40.9,4.3-56.5,12.9
				c-0.6,0.4-1.1,0.7-1.5,1c-8.6-8-19.3-15.5-32-22.6c-39.8-21.9-87.8-32.9-144-33c-3.8-5.2-9.6-9.8-17.2-14
				c-15.5-8.6-34.4-12.9-56.5-12.9c-7.5,0-14.5,0.5-21,1.4c-1.5-10.6-9.2-19.8-23.3-27.5c-15.5-8.6-34.3-12.9-56.4-12.9
				c-15.8,0-29.8,2.2-42,6.5c-27.2-7.4-57.1-11.1-89.8-11.1c-56.5,0-104.6,11-144.4,33c-18.5,10.2-32.6,21.3-42.5,33.4
				c-5.5-0.6-11.4-0.9-17.5-0.9c-21.9,0-40.7,4.3-56.4,12.8c-14.6,8.1-22.3,17.9-23.1,29.3c-0.1,0.6-0.1,1.2-0.1,1.9
				c0,1.3,0.1,2.5,0.2,3.8c0.7,5.2,3,10.1,6.8,14.8c-2.7,3.3-4.6,6.8-5.9,10.6c-20.4,5.4-39.3,12.8-56.6,22.4
				c-7.3,4.1-14,8.3-20,12.7c-12.5-4.4-26.6-6.6-42.5-6.6c-22.1,0-40.8,4.3-56.3,12.9c-11.6,6.4-18.9,13.7-21.9,22.1
				c-1.3,0-2.6,0-3.9,0c-31.7,0-60.8,3.5-87.3,10.6c-11.2-3.3-23.6-5-37.1-5c-13.8,0-26.2,1.7-37.4,5.1V878h2500V518.3
				c-0.7-15.2-10.1-28.2-28.3-39c-16.3-9.6-35.4-15.1-57.4-16.5c-3.5-3-7.5-5.8-12.1-8.5c-19-11.2-41.7-16.9-68.4-16.9
				c-11.4,0-22.1,1-32,3.1c-13.3,2.7-25.4,7.3-36.3,13.7c-15.1,8.9-24.2,19.4-27.2,31.3c-17.3,1.3-33.7,3.7-49.2,7.4
				C2145.4,487,2139.1,481.7,2130.4,477z"/>
		</g>
	</g>
</g>
<g transform="matrix( 1, 0, 0, 1, 40,120) ">
	<g>
		<g id="Layer0_122_FILL">
			<path class="st2" d="M2159,648.7c-96.6,13.5-191.4,30.3-284.3,50.5c-95.9,20.6-195,30.7-297.5,30.2
				c-102.6-0.4-199.9-13.5-291.7-39.2c-90.9-25.6-186.2-44.3-286-55.9c-99.9-11.7-198.6-8.9-296,8.3c-28.5,5.1-56.9,10.3-85.2,15.6
				v-16.8c3.5-0.4,6.6-1.5,9.3-3.1c3.7-2.2,5.7-4.9,5.7-8v-64c-0.1-3.1-2-5.7-5.7-8c-3.8-2.3-8.5-3.4-13.9-3.4
				c-5.5,0-10.1,1.1-13.9,3.4c-3.7,2.2-5.7,4.9-5.9,8v64c0.2,3.1,2.1,5.7,5.9,8c2.7,1.5,5.7,2.6,9,3.1v18.6
				c-15.8,3-31.5,6.1-47.2,9.3v-4.8c3.5-0.5,6.6-1.5,9.3-3.2c3.7-2.2,5.7-4.9,5.7-8v-63.9c-0.1-3.1-2-5.8-5.7-8
				c-3.8-2.3-8.5-3.4-13.9-3.4c-5.5,0-10.1,1.1-13.9,3.4c-3.7,2.2-5.7,4.9-5.9,8v63.9c0.2,3.1,2.1,5.7,5.9,8c2.7,1.5,5.7,2.6,9,3.1
				v6.7c-43.6,8.7-87,17.8-130.2,27.3c-100.3,21.9-198.4,19.9-294.3-6.1C72.6,677.4,16.8,664-40,652v563.3h2499.9V652
				C2360.3,635.8,2260,634.7,2159,648.7z"/>
		</g>
	</g>
</g>
<g transform="matrix( 1, 0, 0, 1, 40,120) ">
	<g>
		<g id="Layer0_123_FILL">
			<path class="st0" d="M1512.9,446.3c-13.5,8-20.5,17.5-20.9,28.7v230.4c0.3,11.2,7.3,20.9,20.9,28.9c9.8,5.8,21,9.6,33.6,11.3V795
				c-41.7-0.2-83.7,2.1-125.9,7c-63.9,7.5-125.9,17.8-186.2,31l-18.7-2.2l-4.6-24.5l-23.6,19.7l-33.8-7.1l15,23l-21.6,3.5l13.7,5.4
				c-8.8,2.3-17.5,4.7-26.2,7.2c-91.9,25.7-189.1,38.8-291.7,39.2c-102.5,0.5-201.6-9.5-297.5-30.2
				c-79.2-17.2-159.7-31.9-241.5-44.3v-12.4c5.5-0.8,10.5-2.5,14.9-5.1c6.1-3.6,9.2-8,9.4-13V687.7c-0.2-5.1-3.3-9.4-9.4-13
				c-6.3-3.7-13.9-5.6-22.8-5.6s-16.6,1.9-22.8,5.6c-6.1,3.6-9.2,8-9.4,13v104.5c0.2,5.1,3.3,9.4,9.4,13c4.5,2.7,9.6,4.4,15.3,5.1
				v10.1c-9.1-1.4-18.2-2.7-27.3-3.9c-101-14-201.3-12.9-300.9,3.3v447.6H2460V819.8c-56.8,12-112.6,25.4-167.4,40.2
				c-95.9,26-194.1,28.1-294.3,6.1c-80.6-17.7-161.9-34-243.9-49v-21.4c8.9-1.3,16.8-4,23.8-8.1c9.8-5.8,14.9-12.8,15.1-21V599
				c-0.2-8.2-5.3-15.1-15.1-20.9c-10.1-6-22.3-9-36.6-9c-14.3,0-26.5,3-36.6,9c-9.8,5.8-14.9,12.8-15.1,20.9v167.8
				c0.2,8.2,5.3,15.1,15.1,21c7.2,4.2,15.3,7,24.5,8.2v16.7c-4.3-0.8-8.6-1.5-12.9-2.3c-45-8-90.3-12.8-135.9-14.6v-50.4
				c12.2-1.8,23.1-5.5,32.7-11.1c13.5-8,20.4-17.6,20.8-28.9V475c-0.4-11.2-7.3-20.8-20.8-28.7c-13.9-8.2-30.7-12.3-50.3-12.3h-0.1
				C1543.4,434,1526.7,438.1,1512.9,446.3z"/>
		</g>
	</g>
</g>
</svg>
